<mxfile host="app.diagrams.net" agent="Mozilla/5.0 (Windows NT 10.0; Win64; x64) AppleWebKit/537.36 (KHTML, like Gecko) Chrome/132.0.0.0 Safari/537.36" version="26.0.11">
  <diagram name="Страница — 1" id="_XVgefeF8q-6Dzm8BfMS">
    <mxGraphModel dx="746" dy="796" grid="1" gridSize="10" guides="1" tooltips="1" connect="1" arrows="1" fold="1" page="1" pageScale="1" pageWidth="827" pageHeight="1169" math="0" shadow="0">
      <root>
        <mxCell id="0" />
        <mxCell id="1" parent="0" />
        <mxCell id="BIb6kZ5v-TbPjBOuGuzt-1" value="парикмахер" style="rounded=0;whiteSpace=wrap;html=1;" vertex="1" parent="1">
          <mxGeometry x="240" y="160" width="120" height="60" as="geometry" />
        </mxCell>
        <mxCell id="BIb6kZ5v-TbPjBOuGuzt-2" value="услуга" style="rounded=0;whiteSpace=wrap;html=1;" vertex="1" parent="1">
          <mxGeometry x="440" y="160" width="120" height="60" as="geometry" />
        </mxCell>
        <mxCell id="BIb6kZ5v-TbPjBOuGuzt-3" value="ФИО" style="ellipse;whiteSpace=wrap;html=1;" vertex="1" parent="1">
          <mxGeometry x="170" y="60" width="100" height="40" as="geometry" />
        </mxCell>
        <mxCell id="BIb6kZ5v-TbPjBOuGuzt-5" value="&lt;font style=&quot;font-size: 9px;&quot;&gt;специализация&lt;/font&gt;&lt;div&gt;&lt;font style=&quot;font-size: 9px;&quot;&gt;(должность)&lt;/font&gt;&lt;/div&gt;" style="ellipse;whiteSpace=wrap;html=1;" vertex="1" parent="1">
          <mxGeometry x="40" y="105" width="100" height="40" as="geometry" />
        </mxCell>
        <mxCell id="BIb6kZ5v-TbPjBOuGuzt-6" value="телефон" style="ellipse;whiteSpace=wrap;html=1;" vertex="1" parent="1">
          <mxGeometry x="20" y="180" width="100" height="40" as="geometry" />
        </mxCell>
        <mxCell id="BIb6kZ5v-TbPjBOuGuzt-7" value="квалификация" style="ellipse;whiteSpace=wrap;html=1;" vertex="1" parent="1">
          <mxGeometry x="70" y="240" width="100" height="40" as="geometry" />
        </mxCell>
        <mxCell id="BIb6kZ5v-TbPjBOuGuzt-8" value="" style="endArrow=none;html=1;rounded=0;entryX=0.128;entryY=1.062;entryDx=0;entryDy=0;entryPerimeter=0;exitX=0.786;exitY=0.105;exitDx=0;exitDy=0;exitPerimeter=0;" edge="1" parent="1" source="BIb6kZ5v-TbPjBOuGuzt-7">
          <mxGeometry width="50" height="50" relative="1" as="geometry">
            <mxPoint x="230" y="250" as="sourcePoint" />
            <mxPoint x="259.06" y="220.00000000000003" as="targetPoint" />
            <Array as="points" />
          </mxGeometry>
        </mxCell>
        <mxCell id="BIb6kZ5v-TbPjBOuGuzt-9" value="" style="endArrow=none;html=1;rounded=0;entryX=0;entryY=0.5;entryDx=0;entryDy=0;exitX=0.992;exitY=0.392;exitDx=0;exitDy=0;exitPerimeter=0;" edge="1" parent="1" source="BIb6kZ5v-TbPjBOuGuzt-6" target="BIb6kZ5v-TbPjBOuGuzt-1">
          <mxGeometry width="50" height="50" relative="1" as="geometry">
            <mxPoint x="190" y="210" as="sourcePoint" />
            <mxPoint x="240" y="160" as="targetPoint" />
          </mxGeometry>
        </mxCell>
        <mxCell id="BIb6kZ5v-TbPjBOuGuzt-10" value="" style="endArrow=none;html=1;rounded=0;exitX=0.968;exitY=0.691;exitDx=0;exitDy=0;exitPerimeter=0;entryX=0;entryY=0.25;entryDx=0;entryDy=0;" edge="1" parent="1" source="BIb6kZ5v-TbPjBOuGuzt-5" target="BIb6kZ5v-TbPjBOuGuzt-1">
          <mxGeometry width="50" height="50" relative="1" as="geometry">
            <mxPoint x="190" y="150" as="sourcePoint" />
            <mxPoint x="240" y="100" as="targetPoint" />
          </mxGeometry>
        </mxCell>
        <mxCell id="BIb6kZ5v-TbPjBOuGuzt-11" value="" style="endArrow=none;html=1;rounded=0;exitX=0.277;exitY=-0.002;exitDx=0;exitDy=0;exitPerimeter=0;entryX=1;entryY=1;entryDx=0;entryDy=0;" edge="1" parent="1" source="BIb6kZ5v-TbPjBOuGuzt-1" target="BIb6kZ5v-TbPjBOuGuzt-3">
          <mxGeometry width="50" height="50" relative="1" as="geometry">
            <mxPoint x="210" y="140" as="sourcePoint" />
            <mxPoint x="260" y="90" as="targetPoint" />
          </mxGeometry>
        </mxCell>
        <mxCell id="BIb6kZ5v-TbPjBOuGuzt-12" value="" style="edgeStyle=entityRelationEdgeStyle;fontSize=12;html=1;endArrow=ERmany;rounded=0;entryX=0.009;entryY=0.654;entryDx=0;entryDy=0;entryPerimeter=0;startArrow=ERmany;startFill=0;endFill=0;" edge="1" parent="1">
          <mxGeometry width="100" height="100" relative="1" as="geometry">
            <mxPoint x="360" y="190" as="sourcePoint" />
            <mxPoint x="439.99999999999994" y="189.24000000000007" as="targetPoint" />
          </mxGeometry>
        </mxCell>
        <mxCell id="BIb6kZ5v-TbPjBOuGuzt-13" value="название" style="ellipse;whiteSpace=wrap;html=1;align=center;" vertex="1" parent="1">
          <mxGeometry x="410" y="110" width="70" height="30" as="geometry" />
        </mxCell>
        <mxCell id="BIb6kZ5v-TbPjBOuGuzt-14" value="цена" style="ellipse;whiteSpace=wrap;html=1;align=center;" vertex="1" parent="1">
          <mxGeometry x="530" y="50" width="100" height="40" as="geometry" />
        </mxCell>
        <mxCell id="BIb6kZ5v-TbPjBOuGuzt-15" value="&lt;font style=&quot;font-size: 10px;&quot;&gt;длительность&lt;/font&gt;&lt;div&gt;&lt;font style=&quot;font-size: 10px;&quot;&gt;(время)&lt;/font&gt;&lt;/div&gt;" style="ellipse;whiteSpace=wrap;html=1;align=center;" vertex="1" parent="1">
          <mxGeometry x="550" y="110" width="100" height="40" as="geometry" />
        </mxCell>
        <mxCell id="BIb6kZ5v-TbPjBOuGuzt-17" value="&lt;font style=&quot;font-size: 9px;&quot;&gt;описание&lt;/font&gt;&lt;div&gt;&lt;font style=&quot;font-size: 9px;&quot;&gt;(противопоказания)&lt;/font&gt;&lt;/div&gt;" style="ellipse;whiteSpace=wrap;html=1;align=center;" vertex="1" parent="1">
          <mxGeometry x="410" y="50" width="110" height="40" as="geometry" />
        </mxCell>
        <mxCell id="BIb6kZ5v-TbPjBOuGuzt-18" value="" style="endArrow=none;html=1;rounded=0;exitX=0.5;exitY=1;exitDx=0;exitDy=0;entryX=0.205;entryY=-0.002;entryDx=0;entryDy=0;entryPerimeter=0;" edge="1" parent="1" source="BIb6kZ5v-TbPjBOuGuzt-13" target="BIb6kZ5v-TbPjBOuGuzt-2">
          <mxGeometry relative="1" as="geometry">
            <mxPoint x="430" y="130" as="sourcePoint" />
            <mxPoint x="590" y="130" as="targetPoint" />
          </mxGeometry>
        </mxCell>
        <mxCell id="BIb6kZ5v-TbPjBOuGuzt-19" value="" style="endArrow=none;html=1;rounded=0;entryX=0.399;entryY=0.012;entryDx=0;entryDy=0;entryPerimeter=0;" edge="1" parent="1" target="BIb6kZ5v-TbPjBOuGuzt-2">
          <mxGeometry relative="1" as="geometry">
            <mxPoint x="480" y="89.78" as="sourcePoint" />
            <mxPoint x="640" y="89.78" as="targetPoint" />
          </mxGeometry>
        </mxCell>
        <mxCell id="BIb6kZ5v-TbPjBOuGuzt-20" value="" style="endArrow=none;html=1;rounded=0;entryX=0;entryY=1;entryDx=0;entryDy=0;" edge="1" parent="1" target="BIb6kZ5v-TbPjBOuGuzt-14">
          <mxGeometry relative="1" as="geometry">
            <mxPoint x="500" y="159.41" as="sourcePoint" />
            <mxPoint x="660" y="159.41" as="targetPoint" />
          </mxGeometry>
        </mxCell>
        <mxCell id="BIb6kZ5v-TbPjBOuGuzt-21" value="" style="endArrow=none;html=1;rounded=0;entryX=0.176;entryY=0.888;entryDx=0;entryDy=0;entryPerimeter=0;exitX=0.75;exitY=0;exitDx=0;exitDy=0;" edge="1" parent="1" source="BIb6kZ5v-TbPjBOuGuzt-2" target="BIb6kZ5v-TbPjBOuGuzt-15">
          <mxGeometry relative="1" as="geometry">
            <mxPoint x="470" y="160" as="sourcePoint" />
            <mxPoint x="630" y="160" as="targetPoint" />
          </mxGeometry>
        </mxCell>
        <mxCell id="BIb6kZ5v-TbPjBOuGuzt-22" value="материал" style="whiteSpace=wrap;html=1;align=center;" vertex="1" parent="1">
          <mxGeometry x="610" y="300" width="100" height="40" as="geometry" />
        </mxCell>
        <mxCell id="BIb6kZ5v-TbPjBOuGuzt-25" value="" style="edgeStyle=orthogonalEdgeStyle;fontSize=12;html=1;endArrow=ERmany;rounded=0;exitX=0.75;exitY=1;exitDx=0;exitDy=0;endFill=0;startArrow=ERmany;startFill=0;" edge="1" parent="1" source="BIb6kZ5v-TbPjBOuGuzt-2">
          <mxGeometry width="100" height="100" relative="1" as="geometry">
            <mxPoint x="530" y="280" as="sourcePoint" />
            <mxPoint x="610" y="320" as="targetPoint" />
            <Array as="points">
              <mxPoint x="530" y="320" />
            </Array>
          </mxGeometry>
        </mxCell>
        <mxCell id="BIb6kZ5v-TbPjBOuGuzt-26" value="название" style="ellipse;whiteSpace=wrap;html=1;align=center;" vertex="1" parent="1">
          <mxGeometry x="607" y="250" width="100" height="30" as="geometry" />
        </mxCell>
        <mxCell id="BIb6kZ5v-TbPjBOuGuzt-27" value="цена" style="ellipse;whiteSpace=wrap;html=1;align=center;" vertex="1" parent="1">
          <mxGeometry x="740" y="360" width="80" height="30" as="geometry" />
        </mxCell>
        <mxCell id="BIb6kZ5v-TbPjBOuGuzt-28" value="количество на&amp;nbsp;&lt;div&gt;складе&lt;/div&gt;" style="ellipse;whiteSpace=wrap;html=1;align=center;" vertex="1" parent="1">
          <mxGeometry x="730" y="290" width="110" height="50" as="geometry" />
        </mxCell>
        <mxCell id="BIb6kZ5v-TbPjBOuGuzt-29" value="поставщик&lt;div&gt;(производитель)&lt;/div&gt;" style="ellipse;whiteSpace=wrap;html=1;align=center;" vertex="1" parent="1">
          <mxGeometry x="710" y="230" width="120" height="40" as="geometry" />
        </mxCell>
        <mxCell id="BIb6kZ5v-TbPjBOuGuzt-30" value="описание&lt;div&gt;(вес/объем, ед. измерения)&lt;/div&gt;" style="ellipse;whiteSpace=wrap;html=1;align=center;" vertex="1" parent="1">
          <mxGeometry x="610" y="360" width="120" height="50" as="geometry" />
        </mxCell>
        <mxCell id="BIb6kZ5v-TbPjBOuGuzt-31" value="" style="endArrow=none;html=1;rounded=0;entryX=0.5;entryY=0;entryDx=0;entryDy=0;" edge="1" parent="1" target="BIb6kZ5v-TbPjBOuGuzt-27">
          <mxGeometry relative="1" as="geometry">
            <mxPoint x="710" y="339.35" as="sourcePoint" />
            <mxPoint x="870" y="339.35" as="targetPoint" />
          </mxGeometry>
        </mxCell>
        <mxCell id="BIb6kZ5v-TbPjBOuGuzt-32" value="" style="endArrow=none;html=1;rounded=0;exitX=0.5;exitY=1;exitDx=0;exitDy=0;entryX=0.5;entryY=0;entryDx=0;entryDy=0;" edge="1" parent="1" source="BIb6kZ5v-TbPjBOuGuzt-22" target="BIb6kZ5v-TbPjBOuGuzt-30">
          <mxGeometry relative="1" as="geometry">
            <mxPoint x="620" y="350" as="sourcePoint" />
            <mxPoint x="780" y="350" as="targetPoint" />
          </mxGeometry>
        </mxCell>
        <mxCell id="BIb6kZ5v-TbPjBOuGuzt-33" value="" style="endArrow=none;html=1;rounded=0;entryX=0;entryY=0.5;entryDx=0;entryDy=0;" edge="1" parent="1" target="BIb6kZ5v-TbPjBOuGuzt-28">
          <mxGeometry relative="1" as="geometry">
            <mxPoint x="710" y="319.68" as="sourcePoint" />
            <mxPoint x="870" y="319.68" as="targetPoint" />
          </mxGeometry>
        </mxCell>
        <mxCell id="BIb6kZ5v-TbPjBOuGuzt-34" value="" style="endArrow=none;html=1;rounded=0;entryX=0.263;entryY=0.936;entryDx=0;entryDy=0;entryPerimeter=0;" edge="1" parent="1" target="BIb6kZ5v-TbPjBOuGuzt-29">
          <mxGeometry relative="1" as="geometry">
            <mxPoint x="690" y="300" as="sourcePoint" />
            <mxPoint x="740" y="270" as="targetPoint" />
          </mxGeometry>
        </mxCell>
        <mxCell id="BIb6kZ5v-TbPjBOuGuzt-35" value="" style="endArrow=none;html=1;rounded=0;entryX=0.697;entryY=0.96;entryDx=0;entryDy=0;entryPerimeter=0;exitX=0.564;exitY=-0.014;exitDx=0;exitDy=0;exitPerimeter=0;" edge="1" parent="1" source="BIb6kZ5v-TbPjBOuGuzt-22" target="BIb6kZ5v-TbPjBOuGuzt-26">
          <mxGeometry relative="1" as="geometry">
            <mxPoint x="650" y="300" as="sourcePoint" />
            <mxPoint x="680" y="280" as="targetPoint" />
          </mxGeometry>
        </mxCell>
        <mxCell id="BIb6kZ5v-TbPjBOuGuzt-36" value="выполненная работа" style="whiteSpace=wrap;html=1;align=center;" vertex="1" parent="1">
          <mxGeometry x="180" y="370" width="140" height="60" as="geometry" />
        </mxCell>
        <mxCell id="BIb6kZ5v-TbPjBOuGuzt-37" value="дата" style="ellipse;whiteSpace=wrap;html=1;align=center;" vertex="1" parent="1">
          <mxGeometry x="50" y="370" width="100" height="40" as="geometry" />
        </mxCell>
        <mxCell id="BIb6kZ5v-TbPjBOuGuzt-38" value="цена" style="ellipse;whiteSpace=wrap;html=1;align=center;" vertex="1" parent="1">
          <mxGeometry x="60" y="420" width="100" height="40" as="geometry" />
        </mxCell>
        <mxCell id="BIb6kZ5v-TbPjBOuGuzt-45" value="" style="fontSize=12;html=1;endArrow=ERmany;rounded=0;exitX=0.5;exitY=1;exitDx=0;exitDy=0;endFill=0;" edge="1" parent="1" source="BIb6kZ5v-TbPjBOuGuzt-1">
          <mxGeometry width="100" height="100" relative="1" as="geometry">
            <mxPoint x="301" y="370" as="sourcePoint" />
            <mxPoint x="300" y="369" as="targetPoint" />
          </mxGeometry>
        </mxCell>
        <mxCell id="BIb6kZ5v-TbPjBOuGuzt-46" value="" style="edgeStyle=entityRelationEdgeStyle;fontSize=12;html=1;endArrow=none;startArrow=ERmany;rounded=0;entryX=0;entryY=0.75;entryDx=0;entryDy=0;endFill=0;startFill=0;" edge="1" parent="1" target="BIb6kZ5v-TbPjBOuGuzt-2">
          <mxGeometry width="100" height="100" relative="1" as="geometry">
            <mxPoint x="320" y="380" as="sourcePoint" />
            <mxPoint x="420" y="280" as="targetPoint" />
            <Array as="points">
              <mxPoint x="430" y="200" />
            </Array>
          </mxGeometry>
        </mxCell>
        <mxCell id="BIb6kZ5v-TbPjBOuGuzt-47" value="" style="endArrow=none;html=1;rounded=0;" edge="1" parent="1">
          <mxGeometry relative="1" as="geometry">
            <mxPoint x="150" y="389.47" as="sourcePoint" />
            <mxPoint x="180" y="390" as="targetPoint" />
          </mxGeometry>
        </mxCell>
        <mxCell id="BIb6kZ5v-TbPjBOuGuzt-48" value="" style="endArrow=none;html=1;rounded=0;entryX=0;entryY=0.75;entryDx=0;entryDy=0;" edge="1" parent="1" source="BIb6kZ5v-TbPjBOuGuzt-38" target="BIb6kZ5v-TbPjBOuGuzt-36">
          <mxGeometry relative="1" as="geometry">
            <mxPoint x="150" y="430" as="sourcePoint" />
            <mxPoint x="310" y="430" as="targetPoint" />
            <Array as="points">
              <mxPoint x="170" y="420" />
            </Array>
          </mxGeometry>
        </mxCell>
        <mxCell id="BIb6kZ5v-TbPjBOuGuzt-49" value="клиент" style="whiteSpace=wrap;html=1;align=center;" vertex="1" parent="1">
          <mxGeometry x="440" y="520" width="150" height="60" as="geometry" />
        </mxCell>
        <mxCell id="BIb6kZ5v-TbPjBOuGuzt-50" value="ФИО" style="ellipse;whiteSpace=wrap;html=1;align=center;" vertex="1" parent="1">
          <mxGeometry x="400" y="630" width="100" height="40" as="geometry" />
        </mxCell>
        <mxCell id="BIb6kZ5v-TbPjBOuGuzt-51" value="телефон" style="ellipse;whiteSpace=wrap;html=1;align=center;" vertex="1" parent="1">
          <mxGeometry x="540" y="610" width="100" height="40" as="geometry" />
        </mxCell>
        <mxCell id="BIb6kZ5v-TbPjBOuGuzt-53" value="" style="fontSize=12;html=1;endArrow=ERmany;rounded=0;edgeStyle=orthogonalEdgeStyle;exitX=0;exitY=0.5;exitDx=0;exitDy=0;entryX=0.75;entryY=1;entryDx=0;entryDy=0;endFill=0;" edge="1" parent="1" source="BIb6kZ5v-TbPjBOuGuzt-49" target="BIb6kZ5v-TbPjBOuGuzt-36">
          <mxGeometry width="100" height="100" relative="1" as="geometry">
            <mxPoint x="370" y="620" as="sourcePoint" />
            <mxPoint x="290" y="440" as="targetPoint" />
          </mxGeometry>
        </mxCell>
        <mxCell id="BIb6kZ5v-TbPjBOuGuzt-54" value="" style="endArrow=none;html=1;rounded=0;entryX=0.5;entryY=0;entryDx=0;entryDy=0;exitX=0.657;exitY=0.996;exitDx=0;exitDy=0;exitPerimeter=0;" edge="1" parent="1" source="BIb6kZ5v-TbPjBOuGuzt-49" target="BIb6kZ5v-TbPjBOuGuzt-51">
          <mxGeometry relative="1" as="geometry">
            <mxPoint x="470" y="590" as="sourcePoint" />
            <mxPoint x="630" y="590" as="targetPoint" />
          </mxGeometry>
        </mxCell>
        <mxCell id="BIb6kZ5v-TbPjBOuGuzt-55" value="" style="endArrow=none;html=1;rounded=0;entryX=0.376;entryY=1.022;entryDx=0;entryDy=0;entryPerimeter=0;exitX=0.665;exitY=0.037;exitDx=0;exitDy=0;exitPerimeter=0;" edge="1" parent="1" source="BIb6kZ5v-TbPjBOuGuzt-50">
          <mxGeometry relative="1" as="geometry">
            <mxPoint x="468" y="630" as="sourcePoint" />
            <mxPoint x="500" y="580" as="targetPoint" />
          </mxGeometry>
        </mxCell>
      </root>
    </mxGraphModel>
  </diagram>
</mxfile>
